<svg width="24" height="24" viewBox="0 0 24 24" fill="none" xmlns="http://www.w3.org/2000/svg">
<path d="M17 19C17.5523 19 18 18.5523 18 18V17.6667C18 16.429 17.9518 15.3158 16.9958 14.3668C16.4017 13.7771 15.8581 13.6036 15.0972 13.3718C14.097 13.067 13.0456 13 12 13C10.9544 13 9.903 13.067 8.9028 13.3718C8.14192 13.6036 7.59833 13.7771 7.00421 14.3668C6.04819 15.3158 6 16.429 6 17.6667V18" stroke="#CED0EA" stroke-width="1.5" stroke-linecap="round" stroke-linejoin="round"/>
<path d="M7.5 22H3C2.44772 22 2 21.5523 2 21V16.5M2 7.5V3C2 2.44772 2.44772 2 3 2H7.5M16.5 2H21C21.5523 2 22 2.44772 22 3V7.5M22 16.5V21C22 21.5523 21.5523 22 21 22H16.5" stroke="#CED0EA" stroke-width="1.5" stroke-linecap="round" stroke-linejoin="round"/>
<rect x="9" y="5" width="6" height="6" rx="3" stroke="#CED0EA" stroke-width="1.5"/>
</svg>
