<svg width="24" height="24" viewBox="0 0 24 24" fill="none" xmlns="http://www.w3.org/2000/svg">
<path d="M2 2H22V5H2V2Z" stroke="white" stroke-width="1.5" stroke-linecap="round" stroke-linejoin="round"/>
<path d="M2 16.5H3V5H21V16.5H22" stroke="white" stroke-width="1.5" stroke-linecap="round" stroke-linejoin="round"/>
<path d="M9 15H15M9 15H8H15M9 15V11H15V15M9 15L12 17M15 15H16M15 15L12 17M8 19H9L12 17M16 19H15L12 17" stroke="white" stroke-width="1.5" stroke-linecap="round" stroke-linejoin="round"/>
<path d="M18 4.99996V4.24996C18.4142 4.24996 18.75 4.58575 18.75 4.99996H18ZM6 4.99996H5.25C5.25 4.58575 5.58579 4.24996 6 4.24996V4.99996ZM20.25 22L20.9339 21.6922C21.0384 21.9243 21.018 22.1935 20.8798 22.4072C20.7416 22.6209 20.5045 22.75 20.25 22.75L20.25 22ZM3.75 22L3.75 22.75C3.4955 22.75 3.25837 22.6209 3.12019 22.4072C2.982 22.1935 2.96162 21.9243 3.06606 21.6922L3.75 22ZM18.1762 17.3914L18.8601 17.0836L18.1762 17.3914ZM17.25 16.5707V4.99996H18.75V16.5707H17.25ZM18 5.74996H6V4.24996H18V5.74996ZM6.75 4.99996V16.5707H5.25V4.99996H6.75ZM6.50778 17.6992L4.43394 22.3077L3.06606 21.6922L5.1399 17.0836L6.50778 17.6992ZM3.75 21.25L20.25 21.25L20.25 22.75L3.75 22.75L3.75 21.25ZM19.5661 22.3078L17.4922 17.6992L18.8601 17.0836L20.9339 21.6922L19.5661 22.3078ZM18.75 16.5707C18.75 16.7475 18.7875 16.9224 18.8601 17.0836L17.4922 17.6992C17.3326 17.3444 17.25 16.9598 17.25 16.5707H18.75ZM6.75 16.5707C6.75 16.9598 6.66744 17.3444 6.50778 17.6992L5.1399 17.0836C5.21247 16.9224 5.25 16.7475 5.25 16.5707H6.75Z" fill="white"/>
</svg>
